<svg width="50" height="50" viewBox="0 0 50 50" fill="none" xmlns="http://www.w3.org/2000/svg">
<g id="Component">
<g id="vuesax/bulk/calendar">
<g id="calendar">
<path id="Vector" d="M34.896 7.4165V4.1665C34.896 3.31234 34.1877 2.604 33.3335 2.604C32.4793 2.604 31.771 3.31234 31.771 4.1665V7.2915H18.2293V4.1665C18.2293 3.31234 17.521 2.604 16.6668 2.604C15.8127 2.604 15.1043 3.31234 15.1043 4.1665V7.4165C9.47932 7.93733 6.75015 11.2915 6.33349 16.2707C6.29182 16.8748 6.79182 17.3748 7.37515 17.3748H42.6252C43.2293 17.3748 43.7293 16.854 43.6668 16.2707C43.2502 11.2915 40.521 7.93733 34.896 7.4165Z" fill="#08172E"/>
<path id="Vector_2" opacity="0.4" d="M41.6667 20.5C42.8125 20.5 43.75 21.4375 43.75 22.5833V35.4167C43.75 41.6667 40.625 45.8333 33.3333 45.8333H16.6667C9.375 45.8333 6.25 41.6667 6.25 35.4167V22.5833C6.25 21.4375 7.1875 20.5 8.33333 20.5H41.6667Z" fill="#08172E"/>
<g id="Group">
<path id="Vector_3" d="M17.7083 31.2498C17.1667 31.2498 16.625 31.0206 16.2292 30.6456C15.8542 30.2498 15.625 29.7082 15.625 29.1665C15.625 28.6248 15.8542 28.0832 16.2292 27.6873C16.8125 27.104 17.7292 26.9165 18.5 27.2498C18.7708 27.354 19 27.4998 19.1875 27.6873C19.5625 28.0832 19.7917 28.6248 19.7917 29.1665C19.7917 29.7082 19.5625 30.2498 19.1875 30.6456C18.7917 31.0206 18.25 31.2498 17.7083 31.2498Z" fill="#08172E"/>
</g>
<g id="Group_2">
<path id="Vector_4" d="M25.0003 31.2498C24.4587 31.2498 23.917 31.0206 23.5212 30.6456C23.1462 30.2498 22.917 29.7082 22.917 29.1665C22.917 28.6248 23.1462 28.0832 23.5212 27.6873C23.7087 27.4998 23.9378 27.354 24.2087 27.2498C24.9795 26.9165 25.8962 27.104 26.4795 27.6873C26.8545 28.0832 27.0837 28.6248 27.0837 29.1665C27.0837 29.7082 26.8545 30.2498 26.4795 30.6456C26.3753 30.729 26.2712 30.8123 26.167 30.8956C26.042 30.979 25.917 31.0415 25.792 31.0832C25.667 31.1457 25.542 31.1873 25.417 31.2082C25.2712 31.229 25.1462 31.2498 25.0003 31.2498Z" fill="#08172E"/>
</g>
<g id="Group_3">
<path id="Vector_5" d="M32.2913 31.2502C31.7497 31.2502 31.208 31.021 30.8122 30.646C30.4372 30.2502 30.208 29.7085 30.208 29.1669C30.208 28.6252 30.4372 28.0835 30.8122 27.6877C31.0205 27.5002 31.2288 27.3543 31.4997 27.2502C31.8747 27.0835 32.2913 27.0418 32.708 27.1252C32.833 27.146 32.958 27.1877 33.083 27.2502C33.208 27.2918 33.333 27.3544 33.458 27.4377C33.5622 27.521 33.6663 27.6044 33.7705 27.6877C34.1455 28.0835 34.3747 28.6252 34.3747 29.1669C34.3747 29.7085 34.1455 30.2502 33.7705 30.646C33.6663 30.7293 33.5622 30.8127 33.458 30.896C33.333 30.9793 33.208 31.0419 33.083 31.0835C32.958 31.146 32.833 31.1877 32.708 31.2085C32.5622 31.2294 32.4163 31.2502 32.2913 31.2502Z" fill="#08172E"/>
</g>
<g id="Group_4">
<path id="Vector_6" d="M17.7083 38.5417C17.4375 38.5417 17.1667 38.4792 16.9167 38.3751C16.6458 38.2709 16.4375 38.125 16.2292 37.9375C15.8542 37.5417 15.625 37 15.625 36.4584C15.625 35.9167 15.8542 35.375 16.2292 34.9792C16.4375 34.7917 16.6458 34.6458 16.9167 34.5417C17.2917 34.375 17.7083 34.3333 18.125 34.4167C18.25 34.4375 18.375 34.4792 18.5 34.5417C18.625 34.5833 18.75 34.6459 18.875 34.7292C18.9792 34.8126 19.0833 34.8959 19.1875 34.9792C19.5625 35.375 19.7917 35.9167 19.7917 36.4584C19.7917 37 19.5625 37.5417 19.1875 37.9375C19.0833 38.0208 18.9792 38.125 18.875 38.1875C18.75 38.2708 18.625 38.3334 18.5 38.3751C18.375 38.4376 18.25 38.4792 18.125 38.5C17.9792 38.5209 17.8542 38.5417 17.7083 38.5417Z" fill="#08172E"/>
</g>
<g id="Group_5">
<path id="Vector_7" d="M25.0003 38.5415C24.4587 38.5415 23.917 38.3123 23.5212 37.9373C23.1462 37.5415 22.917 36.9998 22.917 36.4582C22.917 35.9165 23.1462 35.3748 23.5212 34.979C24.292 34.2082 25.7087 34.2082 26.4795 34.979C26.8545 35.3748 27.0837 35.9165 27.0837 36.4582C27.0837 36.9998 26.8545 37.5415 26.4795 37.9373C26.0837 38.3123 25.542 38.5415 25.0003 38.5415Z" fill="#08172E"/>
</g>
<g id="Group_6">
<path id="Vector_8" d="M32.2913 38.5415C31.7497 38.5415 31.208 38.3123 30.8122 37.9373C30.4372 37.5415 30.208 36.9998 30.208 36.4582C30.208 35.9165 30.4372 35.3748 30.8122 34.979C31.583 34.2082 32.9997 34.2082 33.7705 34.979C34.1455 35.3748 34.3747 35.9165 34.3747 36.4582C34.3747 36.9998 34.1455 37.5415 33.7705 37.9373C33.3747 38.3123 32.833 38.5415 32.2913 38.5415Z" fill="#08172E"/>
</g>
</g>
</g>
</g>
</svg>
